<svg xmlns="http://www.w3.org/2000/svg" width="800" height="600" viewBox="0 0 800 600" role="img" aria-label="Plant placeholder">
  <defs>
    <linearGradient id="g" x1="0" x2="0" y1="0" y2="1">
      <stop offset="0%" stop-color="#d1fae5"/>
      <stop offset="100%" stop-color="#a7f3d0"/>
    </linearGradient>
  </defs>
  <rect width="800" height="600" fill="url(#g)"/>
  <!-- pot -->
  <g transform="translate(350,360)">
    <rect x="-80" y="0" width="160" height="40" rx="6" fill="#a85632"/>
    <rect x="-70" y="-20" width="140" height="20" rx="6" fill="#c06a42"/>
  </g>
  <!-- stems -->
  <g transform="translate(400,320)" stroke="#065f46" stroke-width="6" fill="none" stroke-linecap="round">
    <path d="M0 40 C -20 10, -30 -30, -20 -70"/>
    <path d="M0 40 C 10 10, 20 -20, 15 -60"/>
    <path d="M0 40 C 0 0, -10 -10, 0 -80"/>
  </g>
  <!-- leaves -->
  <g transform="translate(400,240)" fill="#10b981" stroke="#047857" stroke-width="2">
    <ellipse cx="-35" cy="20" rx="32" ry="18"/>
    <ellipse cx="20" cy="35" rx="28" ry="16"/>
    <ellipse cx="0" cy="0" rx="26" ry="14"/>
  </g>
  <text x="400" y="560" text-anchor="middle" font-family="Inter,system-ui,Segoe UI,Roboto,Helvetica,Arial,sans-serif" font-size="20" fill="#065f46" opacity="0.8">Image unavailable • GreenNest</text>
</svg>